<svg width="38" height="28" viewBox="0 0 38 28" fill="none" xmlns="http://www.w3.org/2000/svg" xmlns:xlink="http://www.w3.org/1999/xlink">
<path d="M29.7,12.206C29.7,14.43 28.429,16.683 26.137,18.295L27.863,20.749C30.771,18.703 32.7,15.61 32.7,12.206L29.7,12.206ZM26.137,18.295C23.834,19.915 20.349,20.976 16.6,20.976L16.6,23.976C20.85,23.976 24.966,22.786 27.863,20.749L26.137,18.295ZM16.6,20.976C12.877,20.976 9.535,19.893 7.163,18.224C4.783,16.55 3.5,14.392 3.5,12.206L0.5,12.206C0.5,15.648 2.517,18.625 5.437,20.678C8.365,22.738 12.323,23.976 16.6,23.976L16.6,20.976ZM3.5,12.206C3.5,9.944 4.789,7.79 7.157,6.14C9.525,4.49 12.866,3.437 16.6,3.437L16.6,0.437C12.333,0.437 8.375,1.635 5.442,3.678C2.511,5.721 0.5,8.701 0.5,12.206L3.5,12.206ZM16.6,3.437C20.323,3.437 23.665,4.52 26.037,6.188C28.417,7.863 29.7,10.021 29.7,12.206L32.7,12.206C32.7,8.765 30.683,5.788 27.763,3.735C24.835,1.675 20.877,0.437 16.6,0.437L16.6,3.437Z" fill="#1A1A1A"/>
<path d="M27.863,18.295C27.185,17.818 26.25,17.981 25.773,18.659C25.296,19.336 25.459,20.272 26.137,20.748L27.863,18.295ZM34.137,26.375C34.815,26.852 35.75,26.689 36.227,26.011C36.704,25.334 36.541,24.398 35.863,23.921L34.137,26.375ZM26.137,20.748L34.137,26.375L35.863,23.921L27.863,18.295L26.137,20.748Z" fill="#1A1A1A"/>
</svg>
