<svg width="40" height="32" viewBox="0 0 40 32" fill="none" xmlns="http://www.w3.org/2000/svg" xmlns:xlink="http://www.w3.org/1999/xlink">
<path d="M35.888,7.975C35.914,8.325 35.914,8.675 35.914,9.025C35.914,19.7 27.665,32 12.589,32C7.944,32 3.629,30.675 0,28.375C0.66,28.45 1.294,28.475 1.98,28.475C5.812,28.475 9.34,27.2 12.157,25.025C8.553,24.95 5.533,22.625 4.492,19.425C5,19.5 5.508,19.55 6.041,19.55C6.777,19.55 7.513,19.45 8.198,19.275C4.442,18.525 1.624,15.275 1.624,11.35L1.624,11.25C2.716,11.85 3.985,12.225 5.33,12.275C3.122,10.825 1.675,8.35 1.675,5.55C1.675,4.05 2.081,2.675 2.792,1.475C6.827,6.375 12.893,9.575 19.695,9.925C19.569,9.325 19.492,8.7 19.492,8.075C19.492,3.625 23.147,0 27.69,0C30.051,0 32.183,0.975 33.68,2.55C35.533,2.2 37.31,1.525 38.883,0.6C38.274,2.475 36.98,4.05 35.279,5.05C36.929,4.875 38.528,4.425 40,3.8C38.883,5.4 37.487,6.825 35.888,7.975Z" clip-rule="evenodd" fill-rule="evenodd" fill="#FFFFFF"/>
</svg>
