<svg width="40" height="40" viewBox="0 0 40 40" fill="none" xmlns="http://www.w3.org/2000/svg" xmlns:xlink="http://www.w3.org/1999/xlink">
<path d="M36.658,0C38.504,0 40,1.495 40,3.342L40,36.658C40,38.504 38.505,40 36.658,40L3.342,40C1.496,40 0,38.505 0,36.658L0,3.342C0,1.496 1.495,0 3.342,0L36.658,0ZM27.037,15C24.199,15 22.256,16.255 21.391,17.713L21.25,17.972L21.25,15.25L15.833,15.25L15.833,34.417L21.667,34.417L21.667,25.132C21.667,22.021 22.812,20.042 25.567,20.042C27.466,20.042 28.263,21.721 28.329,24.716L28.333,25.132L28.333,34.417L34.167,34.417L34.167,23.831C34.167,18.115 32.799,15 27.037,15ZM11.667,15L5.833,15L5.833,34.167L11.667,34.167L11.667,15ZM8.75,5C6.679,5 5,6.679 5,8.75C5,10.821 6.679,12.5 8.75,12.5C10.821,12.5 12.5,10.821 12.5,8.75C12.5,6.679 10.821,5 8.75,5Z" clip-rule="evenodd" fill-rule="evenodd" fill="#FFFFFF"/>
</svg>
